<?xml version="1.0" encoding="UTF-8"?><svg id="Layer_1" xmlns="http://www.w3.org/2000/svg" viewBox="0 0 516 255"><defs><style>.cls-1,.cls-2,.cls-3{fill:none;}.cls-4{font-family:ArialMT, Arial;font-size:16px;}.cls-4,.cls-5{fill:#17ace0;}.cls-5{font-family:Arial-BoldMT, Arial;font-size:32px;font-weight:700;}.cls-2{stroke:#17ace0;stroke-linejoin:round;stroke-width:2px;}.cls-3{stroke:#000;stroke-miterlimit:10;stroke-width:3px;}</style></defs><polyline id="Arrpw_down" class="cls-2" points="82.5 64.5 73.5 55.5 73.5 82.5 73.5 55.5 64.5 64.5"/><polyline id="Arow_up" class="cls-2" points="469.5 163.5 478.5 172.5 478.5 145.5 478.5 172.5 487.5 163.5"/><text class="cls-4" transform="translate(60.16 46.5)"><tspan x="0" y="0">Exit</tspan></text><text class="cls-4" transform="translate(93.73 111.95)"><tspan x="0" y="0">Shop</tspan></text><text class="cls-4" transform="translate(446.48 136.5)"><tspan x="0" y="0">Entrance</tspan></text><rect id="room3" class="cls-1" x="262.5" y="100.5" width="81" height="126"/><text class="cls-5" transform="translate(294.1 171.2)"><tspan x="0" y="0">3</tspan></text><rect id="room5" class="cls-1" x="172.5" y="100.5" width="90" height="126"/><text class="cls-5" transform="translate(208.6 171.2)"><tspan x="0" y="0">5</tspan></text><rect id="room2" class="cls-1" x="343.5" y="100.5" width="81" height="126"/><text class="cls-5" transform="translate(375.1 171.2)"><tspan x="0" y="0">2</tspan></text><rect id="room4" class="cls-1" x="262.5" y="1.5" width="81" height="99"/><text class="cls-5" transform="translate(294.1 58.7)"><tspan x="0" y="0">4</tspan></text><rect id="room1" class="cls-1" x="424.5" y="181.5" width="90" height="72"/><text class="cls-5" transform="translate(460.6 225.2)"><tspan x="0" y="0">1</tspan></text><rect id="room6" class="cls-1" x="64.5" y="136.5" width="81" height="54"/><text class="cls-5" transform="translate(96.1 172.5)"><tspan x="0" y="0">6</tspan></text><g id="Walls"><polyline class="cls-3" points="424.5 208.5 424.5 253.5 514.5 253.5 514.5 181.5 487.5 181.5"/><polyline class="cls-3" points="64.5 109.5 64.5 82.5 1.5 82.5 1.5 190.5 145.5 190.5 145.5 172.5 172.5 172.5 172.5 226.5 424.5 226.5"/><polyline class="cls-3" points="424.5 181.5 469.5 181.5 424.5 181.5"/><polyline class="cls-3" points="424.5 190.5 424.5 100.5 316.5 100.5"/><polyline class="cls-3" points="289.5 100.5 172.5 100.5 172.5 154.5 145.5 154.5 145.5 82.5 82.5 82.5"/><polyline class="cls-3" points="262.5 154.5 262.5 1.5 343.5 1.5 343.5 154.5"/><line class="cls-3" x1="262.5" y1="172.5" x2="262.5" y2="226.5"/><line class="cls-3" x1="343.5" y1="172.5" x2="343.5" y2="226.5"/><line class="cls-3" x1="64.5" y1="136.5" x2="145.5" y2="136.5"/><line class="cls-3" x1="82.5" y1="100.5" x2="82.5" y2="136.5"/><line class="cls-3" x1="64.5" y1="154.5" x2="64.5" y2="172.5"/><line class="cls-3" x1="289.5" y1="19.5" x2="316.5" y2="19.5"/></g></svg>